<mxfile host="app.diagrams.net" modified="2023-04-28T15:07:39.243Z" agent="Mozilla/5.0 (Windows NT 10.0; Win64; x64) AppleWebKit/537.36 (KHTML, like Gecko) Chrome/114.0.0.0 Safari/537.36 Edg/114.0.0.0" etag="2Y7L9KrwIPRb9X-IUNC3" version="21.2.3" type="device">
  <diagram name="第 1 页" id="k4idtBRF-NcGE0bn2KqS">
    <mxGraphModel dx="2360" dy="1212" grid="1" gridSize="10" guides="1" tooltips="1" connect="1" arrows="1" fold="1" page="0" pageScale="1" pageWidth="827" pageHeight="1169" math="0" shadow="0">
      <root>
        <mxCell id="0" />
        <mxCell id="1" parent="0" />
        <mxCell id="Dqlk6_Eph14tMAh5wgXw-3" value="" style="edgeStyle=orthogonalEdgeStyle;rounded=0;orthogonalLoop=1;jettySize=auto;html=1;" parent="1" source="Dqlk6_Eph14tMAh5wgXw-1" target="Dqlk6_Eph14tMAh5wgXw-2" edge="1">
          <mxGeometry relative="1" as="geometry" />
        </mxCell>
        <mxCell id="Dqlk6_Eph14tMAh5wgXw-1" value="开始" style="rounded=1;whiteSpace=wrap;html=1;" parent="1" vertex="1">
          <mxGeometry x="354" y="80" width="120" height="60" as="geometry" />
        </mxCell>
        <mxCell id="Dqlk6_Eph14tMAh5wgXw-5" value="" style="edgeStyle=orthogonalEdgeStyle;rounded=0;orthogonalLoop=1;jettySize=auto;html=1;" parent="1" source="Dqlk6_Eph14tMAh5wgXw-2" target="Dqlk6_Eph14tMAh5wgXw-4" edge="1">
          <mxGeometry relative="1" as="geometry" />
        </mxCell>
        <mxCell id="Dqlk6_Eph14tMAh5wgXw-2" value="选择功能" style="shape=parallelogram;perimeter=parallelogramPerimeter;whiteSpace=wrap;html=1;fixedSize=1;" parent="1" vertex="1">
          <mxGeometry x="354" y="190" width="120" height="60" as="geometry" />
        </mxCell>
        <mxCell id="Dqlk6_Eph14tMAh5wgXw-7" value="否" style="edgeStyle=orthogonalEdgeStyle;rounded=0;orthogonalLoop=1;jettySize=auto;html=1;" parent="1" source="Dqlk6_Eph14tMAh5wgXw-4" target="Dqlk6_Eph14tMAh5wgXw-6" edge="1">
          <mxGeometry relative="1" as="geometry" />
        </mxCell>
        <mxCell id="Dqlk6_Eph14tMAh5wgXw-11" value="是" style="edgeStyle=orthogonalEdgeStyle;rounded=0;orthogonalLoop=1;jettySize=auto;html=1;" parent="1" source="Dqlk6_Eph14tMAh5wgXw-4" target="Dqlk6_Eph14tMAh5wgXw-10" edge="1">
          <mxGeometry relative="1" as="geometry" />
        </mxCell>
        <mxCell id="Dqlk6_Eph14tMAh5wgXw-4" value="1" style="rhombus;whiteSpace=wrap;html=1;" parent="1" vertex="1">
          <mxGeometry x="70" y="290" width="80" height="80" as="geometry" />
        </mxCell>
        <mxCell id="Dqlk6_Eph14tMAh5wgXw-9" value="否" style="edgeStyle=orthogonalEdgeStyle;rounded=0;orthogonalLoop=1;jettySize=auto;html=1;" parent="1" source="Dqlk6_Eph14tMAh5wgXw-6" target="Dqlk6_Eph14tMAh5wgXw-8" edge="1">
          <mxGeometry relative="1" as="geometry" />
        </mxCell>
        <mxCell id="Dqlk6_Eph14tMAh5wgXw-13" value="是" style="edgeStyle=orthogonalEdgeStyle;rounded=0;orthogonalLoop=1;jettySize=auto;html=1;" parent="1" source="Dqlk6_Eph14tMAh5wgXw-6" target="Dqlk6_Eph14tMAh5wgXw-12" edge="1">
          <mxGeometry relative="1" as="geometry" />
        </mxCell>
        <mxCell id="Dqlk6_Eph14tMAh5wgXw-6" value="2" style="rhombus;whiteSpace=wrap;html=1;" parent="1" vertex="1">
          <mxGeometry x="370" y="290" width="80" height="80" as="geometry" />
        </mxCell>
        <mxCell id="Dqlk6_Eph14tMAh5wgXw-15" value="是" style="edgeStyle=orthogonalEdgeStyle;rounded=0;orthogonalLoop=1;jettySize=auto;html=1;" parent="1" source="Dqlk6_Eph14tMAh5wgXw-8" target="Dqlk6_Eph14tMAh5wgXw-14" edge="1">
          <mxGeometry relative="1" as="geometry" />
        </mxCell>
        <mxCell id="Dqlk6_Eph14tMAh5wgXw-8" value="3" style="rhombus;whiteSpace=wrap;html=1;" parent="1" vertex="1">
          <mxGeometry x="660" y="290" width="80" height="80" as="geometry" />
        </mxCell>
        <mxCell id="9v22ILNH9pio8DLFjY2b-2" value="" style="edgeStyle=orthogonalEdgeStyle;rounded=0;orthogonalLoop=1;jettySize=auto;html=1;" edge="1" parent="1" source="Dqlk6_Eph14tMAh5wgXw-10" target="9v22ILNH9pio8DLFjY2b-1">
          <mxGeometry relative="1" as="geometry" />
        </mxCell>
        <mxCell id="Dqlk6_Eph14tMAh5wgXw-10" value="借书" style="whiteSpace=wrap;html=1;" parent="1" vertex="1">
          <mxGeometry x="50" y="410" width="120" height="60" as="geometry" />
        </mxCell>
        <mxCell id="9v22ILNH9pio8DLFjY2b-20" value="" style="edgeStyle=orthogonalEdgeStyle;rounded=0;orthogonalLoop=1;jettySize=auto;html=1;" edge="1" parent="1" source="Dqlk6_Eph14tMAh5wgXw-12" target="9v22ILNH9pio8DLFjY2b-19">
          <mxGeometry relative="1" as="geometry" />
        </mxCell>
        <mxCell id="Dqlk6_Eph14tMAh5wgXw-12" value="还书" style="whiteSpace=wrap;html=1;" parent="1" vertex="1">
          <mxGeometry x="350" y="410" width="120" height="60" as="geometry" />
        </mxCell>
        <mxCell id="9v22ILNH9pio8DLFjY2b-33" value="" style="edgeStyle=orthogonalEdgeStyle;rounded=0;orthogonalLoop=1;jettySize=auto;html=1;" edge="1" parent="1" source="Dqlk6_Eph14tMAh5wgXw-14" target="9v22ILNH9pio8DLFjY2b-32">
          <mxGeometry relative="1" as="geometry" />
        </mxCell>
        <mxCell id="Dqlk6_Eph14tMAh5wgXw-14" value="查书" style="whiteSpace=wrap;html=1;" parent="1" vertex="1">
          <mxGeometry x="640" y="410" width="120" height="60" as="geometry" />
        </mxCell>
        <mxCell id="9v22ILNH9pio8DLFjY2b-4" value="" style="edgeStyle=orthogonalEdgeStyle;rounded=0;orthogonalLoop=1;jettySize=auto;html=1;" edge="1" parent="1" source="9v22ILNH9pio8DLFjY2b-1" target="9v22ILNH9pio8DLFjY2b-3">
          <mxGeometry relative="1" as="geometry" />
        </mxCell>
        <mxCell id="9v22ILNH9pio8DLFjY2b-1" value="输出当前书籍" style="shape=parallelogram;perimeter=parallelogramPerimeter;whiteSpace=wrap;html=1;fixedSize=1;" vertex="1" parent="1">
          <mxGeometry x="50" y="510" width="120" height="60" as="geometry" />
        </mxCell>
        <mxCell id="9v22ILNH9pio8DLFjY2b-6" value="" style="edgeStyle=orthogonalEdgeStyle;rounded=0;orthogonalLoop=1;jettySize=auto;html=1;" edge="1" parent="1" source="9v22ILNH9pio8DLFjY2b-3" target="9v22ILNH9pio8DLFjY2b-5">
          <mxGeometry relative="1" as="geometry" />
        </mxCell>
        <mxCell id="9v22ILNH9pio8DLFjY2b-3" value="输入要借的书籍编号" style="shape=parallelogram;perimeter=parallelogramPerimeter;whiteSpace=wrap;html=1;fixedSize=1;" vertex="1" parent="1">
          <mxGeometry x="50" y="610" width="120" height="60" as="geometry" />
        </mxCell>
        <mxCell id="9v22ILNH9pio8DLFjY2b-8" value="是" style="edgeStyle=orthogonalEdgeStyle;rounded=0;orthogonalLoop=1;jettySize=auto;html=1;" edge="1" parent="1" source="9v22ILNH9pio8DLFjY2b-5" target="9v22ILNH9pio8DLFjY2b-7">
          <mxGeometry relative="1" as="geometry" />
        </mxCell>
        <mxCell id="9v22ILNH9pio8DLFjY2b-14" value="否" style="edgeStyle=orthogonalEdgeStyle;rounded=0;orthogonalLoop=1;jettySize=auto;html=1;" edge="1" parent="1" source="9v22ILNH9pio8DLFjY2b-5" target="9v22ILNH9pio8DLFjY2b-13">
          <mxGeometry relative="1" as="geometry" />
        </mxCell>
        <mxCell id="9v22ILNH9pio8DLFjY2b-5" value="是否存在" style="rhombus;whiteSpace=wrap;html=1;" vertex="1" parent="1">
          <mxGeometry x="70" y="710" width="80" height="80" as="geometry" />
        </mxCell>
        <mxCell id="9v22ILNH9pio8DLFjY2b-10" value="否" style="edgeStyle=orthogonalEdgeStyle;rounded=0;orthogonalLoop=1;jettySize=auto;html=1;" edge="1" parent="1" source="9v22ILNH9pio8DLFjY2b-7" target="9v22ILNH9pio8DLFjY2b-9">
          <mxGeometry relative="1" as="geometry" />
        </mxCell>
        <mxCell id="9v22ILNH9pio8DLFjY2b-12" value="是" style="edgeStyle=orthogonalEdgeStyle;rounded=0;orthogonalLoop=1;jettySize=auto;html=1;" edge="1" parent="1" source="9v22ILNH9pio8DLFjY2b-7" target="9v22ILNH9pio8DLFjY2b-11">
          <mxGeometry relative="1" as="geometry" />
        </mxCell>
        <mxCell id="9v22ILNH9pio8DLFjY2b-7" value="是否已借阅" style="rhombus;whiteSpace=wrap;html=1;" vertex="1" parent="1">
          <mxGeometry x="70" y="830" width="80" height="80" as="geometry" />
        </mxCell>
        <mxCell id="9v22ILNH9pio8DLFjY2b-16" value="" style="edgeStyle=orthogonalEdgeStyle;rounded=0;orthogonalLoop=1;jettySize=auto;html=1;" edge="1" parent="1" source="9v22ILNH9pio8DLFjY2b-9" target="9v22ILNH9pio8DLFjY2b-15">
          <mxGeometry relative="1" as="geometry" />
        </mxCell>
        <mxCell id="9v22ILNH9pio8DLFjY2b-9" value="借阅成功" style="whiteSpace=wrap;html=1;" vertex="1" parent="1">
          <mxGeometry x="50" y="950" width="120" height="60" as="geometry" />
        </mxCell>
        <mxCell id="9v22ILNH9pio8DLFjY2b-18" value="" style="edgeStyle=orthogonalEdgeStyle;rounded=0;orthogonalLoop=1;jettySize=auto;html=1;" edge="1" parent="1" source="9v22ILNH9pio8DLFjY2b-11" target="9v22ILNH9pio8DLFjY2b-17">
          <mxGeometry relative="1" as="geometry" />
        </mxCell>
        <mxCell id="9v22ILNH9pio8DLFjY2b-11" value="输出错误" style="whiteSpace=wrap;html=1;" vertex="1" parent="1">
          <mxGeometry x="204" y="950" width="120" height="60" as="geometry" />
        </mxCell>
        <mxCell id="9v22ILNH9pio8DLFjY2b-13" value="结束" style="rounded=1;whiteSpace=wrap;html=1;" vertex="1" parent="1">
          <mxGeometry x="204" y="720" width="120" height="60" as="geometry" />
        </mxCell>
        <mxCell id="9v22ILNH9pio8DLFjY2b-15" value="结束" style="rounded=1;whiteSpace=wrap;html=1;" vertex="1" parent="1">
          <mxGeometry x="50" y="1050" width="120" height="60" as="geometry" />
        </mxCell>
        <mxCell id="9v22ILNH9pio8DLFjY2b-17" value="结束" style="rounded=1;whiteSpace=wrap;html=1;" vertex="1" parent="1">
          <mxGeometry x="204" y="1050" width="120" height="60" as="geometry" />
        </mxCell>
        <mxCell id="9v22ILNH9pio8DLFjY2b-22" value="" style="edgeStyle=orthogonalEdgeStyle;rounded=0;orthogonalLoop=1;jettySize=auto;html=1;" edge="1" parent="1" source="9v22ILNH9pio8DLFjY2b-19" target="9v22ILNH9pio8DLFjY2b-21">
          <mxGeometry relative="1" as="geometry" />
        </mxCell>
        <mxCell id="9v22ILNH9pio8DLFjY2b-19" value="输出已借阅书籍" style="shape=parallelogram;perimeter=parallelogramPerimeter;whiteSpace=wrap;html=1;fixedSize=1;" vertex="1" parent="1">
          <mxGeometry x="350" y="510" width="120" height="60" as="geometry" />
        </mxCell>
        <mxCell id="9v22ILNH9pio8DLFjY2b-24" value="" style="edgeStyle=orthogonalEdgeStyle;rounded=0;orthogonalLoop=1;jettySize=auto;html=1;" edge="1" parent="1" source="9v22ILNH9pio8DLFjY2b-21" target="9v22ILNH9pio8DLFjY2b-23">
          <mxGeometry relative="1" as="geometry" />
        </mxCell>
        <mxCell id="9v22ILNH9pio8DLFjY2b-21" value="输入要还的书籍编号" style="shape=parallelogram;perimeter=parallelogramPerimeter;whiteSpace=wrap;html=1;fixedSize=1;" vertex="1" parent="1">
          <mxGeometry x="350" y="610" width="120" height="60" as="geometry" />
        </mxCell>
        <mxCell id="9v22ILNH9pio8DLFjY2b-26" value="是" style="edgeStyle=orthogonalEdgeStyle;rounded=0;orthogonalLoop=1;jettySize=auto;html=1;" edge="1" parent="1" source="9v22ILNH9pio8DLFjY2b-23" target="9v22ILNH9pio8DLFjY2b-25">
          <mxGeometry relative="1" as="geometry" />
        </mxCell>
        <mxCell id="9v22ILNH9pio8DLFjY2b-30" value="否" style="edgeStyle=orthogonalEdgeStyle;rounded=0;orthogonalLoop=1;jettySize=auto;html=1;" edge="1" parent="1" source="9v22ILNH9pio8DLFjY2b-23" target="9v22ILNH9pio8DLFjY2b-29">
          <mxGeometry relative="1" as="geometry" />
        </mxCell>
        <mxCell id="9v22ILNH9pio8DLFjY2b-23" value="是否为已借阅书籍" style="rhombus;whiteSpace=wrap;html=1;" vertex="1" parent="1">
          <mxGeometry x="370" y="710" width="80" height="80" as="geometry" />
        </mxCell>
        <mxCell id="9v22ILNH9pio8DLFjY2b-28" value="" style="edgeStyle=orthogonalEdgeStyle;rounded=0;orthogonalLoop=1;jettySize=auto;html=1;" edge="1" parent="1" source="9v22ILNH9pio8DLFjY2b-25" target="9v22ILNH9pio8DLFjY2b-27">
          <mxGeometry relative="1" as="geometry" />
        </mxCell>
        <mxCell id="9v22ILNH9pio8DLFjY2b-25" value="删除该书借阅信息" style="whiteSpace=wrap;html=1;" vertex="1" parent="1">
          <mxGeometry x="350" y="830" width="120" height="60" as="geometry" />
        </mxCell>
        <mxCell id="9v22ILNH9pio8DLFjY2b-27" value="结束" style="rounded=1;whiteSpace=wrap;html=1;" vertex="1" parent="1">
          <mxGeometry x="350" y="930" width="120" height="60" as="geometry" />
        </mxCell>
        <mxCell id="9v22ILNH9pio8DLFjY2b-31" style="edgeStyle=orthogonalEdgeStyle;rounded=0;orthogonalLoop=1;jettySize=auto;html=1;" edge="1" parent="1" source="9v22ILNH9pio8DLFjY2b-29" target="9v22ILNH9pio8DLFjY2b-27">
          <mxGeometry relative="1" as="geometry">
            <Array as="points">
              <mxPoint x="560" y="910" />
              <mxPoint x="410" y="910" />
            </Array>
          </mxGeometry>
        </mxCell>
        <mxCell id="9v22ILNH9pio8DLFjY2b-29" value="输出错误" style="whiteSpace=wrap;html=1;" vertex="1" parent="1">
          <mxGeometry x="500" y="830" width="120" height="60" as="geometry" />
        </mxCell>
        <mxCell id="9v22ILNH9pio8DLFjY2b-37" value="" style="edgeStyle=orthogonalEdgeStyle;rounded=0;orthogonalLoop=1;jettySize=auto;html=1;" edge="1" parent="1" source="9v22ILNH9pio8DLFjY2b-32" target="9v22ILNH9pio8DLFjY2b-36">
          <mxGeometry relative="1" as="geometry" />
        </mxCell>
        <mxCell id="9v22ILNH9pio8DLFjY2b-32" value="输入书籍名称" style="shape=parallelogram;perimeter=parallelogramPerimeter;whiteSpace=wrap;html=1;fixedSize=1;" vertex="1" parent="1">
          <mxGeometry x="640" y="510" width="120" height="60" as="geometry" />
        </mxCell>
        <mxCell id="9v22ILNH9pio8DLFjY2b-39" value="" style="edgeStyle=orthogonalEdgeStyle;rounded=0;orthogonalLoop=1;jettySize=auto;html=1;" edge="1" parent="1" source="9v22ILNH9pio8DLFjY2b-36" target="9v22ILNH9pio8DLFjY2b-38">
          <mxGeometry relative="1" as="geometry" />
        </mxCell>
        <mxCell id="9v22ILNH9pio8DLFjY2b-36" value="查询书籍" style="whiteSpace=wrap;html=1;" vertex="1" parent="1">
          <mxGeometry x="640" y="610" width="120" height="60" as="geometry" />
        </mxCell>
        <mxCell id="9v22ILNH9pio8DLFjY2b-41" value="" style="edgeStyle=orthogonalEdgeStyle;rounded=0;orthogonalLoop=1;jettySize=auto;html=1;" edge="1" parent="1" source="9v22ILNH9pio8DLFjY2b-38" target="9v22ILNH9pio8DLFjY2b-40">
          <mxGeometry relative="1" as="geometry" />
        </mxCell>
        <mxCell id="9v22ILNH9pio8DLFjY2b-43" value="" style="edgeStyle=orthogonalEdgeStyle;rounded=0;orthogonalLoop=1;jettySize=auto;html=1;" edge="1" parent="1" source="9v22ILNH9pio8DLFjY2b-38" target="9v22ILNH9pio8DLFjY2b-42">
          <mxGeometry relative="1" as="geometry" />
        </mxCell>
        <mxCell id="9v22ILNH9pio8DLFjY2b-38" value="是否查到" style="rhombus;whiteSpace=wrap;html=1;" vertex="1" parent="1">
          <mxGeometry x="660" y="710" width="80" height="80" as="geometry" />
        </mxCell>
        <mxCell id="9v22ILNH9pio8DLFjY2b-45" value="" style="edgeStyle=orthogonalEdgeStyle;rounded=0;orthogonalLoop=1;jettySize=auto;html=1;" edge="1" parent="1" source="9v22ILNH9pio8DLFjY2b-40" target="9v22ILNH9pio8DLFjY2b-44">
          <mxGeometry relative="1" as="geometry" />
        </mxCell>
        <mxCell id="9v22ILNH9pio8DLFjY2b-40" value="输出书籍信息" style="shape=parallelogram;perimeter=parallelogramPerimeter;whiteSpace=wrap;html=1;fixedSize=1;" vertex="1" parent="1">
          <mxGeometry x="640" y="830" width="120" height="60" as="geometry" />
        </mxCell>
        <mxCell id="9v22ILNH9pio8DLFjY2b-46" style="edgeStyle=orthogonalEdgeStyle;rounded=0;orthogonalLoop=1;jettySize=auto;html=1;" edge="1" parent="1" source="9v22ILNH9pio8DLFjY2b-42" target="9v22ILNH9pio8DLFjY2b-44">
          <mxGeometry relative="1" as="geometry">
            <Array as="points">
              <mxPoint x="850" y="910" />
              <mxPoint x="700" y="910" />
            </Array>
          </mxGeometry>
        </mxCell>
        <mxCell id="9v22ILNH9pio8DLFjY2b-42" value="显示错误" style="whiteSpace=wrap;html=1;" vertex="1" parent="1">
          <mxGeometry x="790" y="830" width="120" height="60" as="geometry" />
        </mxCell>
        <mxCell id="9v22ILNH9pio8DLFjY2b-44" value="结束" style="rounded=1;whiteSpace=wrap;html=1;" vertex="1" parent="1">
          <mxGeometry x="640" y="930" width="120" height="60" as="geometry" />
        </mxCell>
      </root>
    </mxGraphModel>
  </diagram>
</mxfile>
